<mxfile host="65bd71144e">
    <diagram id="_ydKjK_IJH30S82iNd8R" name="Page-1">
        <mxGraphModel dx="1302" dy="442" grid="1" gridSize="10" guides="1" tooltips="1" connect="1" arrows="1" fold="1" page="1" pageScale="1" pageWidth="850" pageHeight="1100" math="0" shadow="0">
            <root>
                <mxCell id="0"/>
                <mxCell id="1" parent="0"/>
                <mxCell id="19" style="edgeStyle=none;html=1;entryX=0.5;entryY=0;entryDx=0;entryDy=0;" edge="1" parent="1" source="2" target="7">
                    <mxGeometry relative="1" as="geometry"/>
                </mxCell>
                <mxCell id="2" value="sales" style="rounded=0;whiteSpace=wrap;html=1;" vertex="1" parent="1">
                    <mxGeometry x="320" y="210" width="120" height="60" as="geometry"/>
                </mxCell>
                <mxCell id="3" value="production" style="rounded=0;whiteSpace=wrap;html=1;" vertex="1" parent="1">
                    <mxGeometry x="160" y="210" width="120" height="60" as="geometry"/>
                </mxCell>
                <mxCell id="20" style="edgeStyle=none;html=1;entryX=0.5;entryY=0;entryDx=0;entryDy=0;" edge="1" parent="1" source="4" target="7">
                    <mxGeometry relative="1" as="geometry"/>
                </mxCell>
                <mxCell id="4" value="inventory&lt;br&gt;" style="rounded=0;whiteSpace=wrap;html=1;" vertex="1" parent="1">
                    <mxGeometry x="500" y="210" width="120" height="60" as="geometry"/>
                </mxCell>
                <mxCell id="5" value="current time" style="text;html=1;strokeColor=none;fillColor=none;align=center;verticalAlign=middle;whiteSpace=wrap;rounded=0;" vertex="1" parent="1">
                    <mxGeometry x="60" y="225" width="60" height="30" as="geometry"/>
                </mxCell>
                <mxCell id="6" value="sales" style="rounded=0;whiteSpace=wrap;html=1;" vertex="1" parent="1">
                    <mxGeometry x="320" y="340" width="120" height="60" as="geometry"/>
                </mxCell>
                <mxCell id="7" value="production" style="rounded=0;whiteSpace=wrap;html=1;" vertex="1" parent="1">
                    <mxGeometry x="160" y="340" width="120" height="60" as="geometry"/>
                </mxCell>
                <mxCell id="8" value="inventory" style="rounded=0;whiteSpace=wrap;html=1;" vertex="1" parent="1">
                    <mxGeometry x="500" y="340" width="120" height="60" as="geometry"/>
                </mxCell>
                <mxCell id="9" value="current time" style="text;html=1;strokeColor=none;fillColor=none;align=center;verticalAlign=middle;whiteSpace=wrap;rounded=0;" vertex="1" parent="1">
                    <mxGeometry x="60" y="355" width="60" height="30" as="geometry"/>
                </mxCell>
                <mxCell id="10" value="sales" style="rounded=0;whiteSpace=wrap;html=1;" vertex="1" parent="1">
                    <mxGeometry x="320" y="470" width="120" height="60" as="geometry"/>
                </mxCell>
                <mxCell id="11" value="production" style="rounded=0;whiteSpace=wrap;html=1;" vertex="1" parent="1">
                    <mxGeometry x="160" y="470" width="120" height="60" as="geometry"/>
                </mxCell>
                <mxCell id="12" value="inventory" style="rounded=0;whiteSpace=wrap;html=1;" vertex="1" parent="1">
                    <mxGeometry x="500" y="470" width="120" height="60" as="geometry"/>
                </mxCell>
                <mxCell id="13" value="current time" style="text;html=1;strokeColor=none;fillColor=none;align=center;verticalAlign=middle;whiteSpace=wrap;rounded=0;" vertex="1" parent="1">
                    <mxGeometry x="60" y="485" width="60" height="30" as="geometry"/>
                </mxCell>
                <mxCell id="15" value="" style="edgeStyle=none;html=1;" edge="1" parent="1" source="14" target="4">
                    <mxGeometry relative="1" as="geometry"/>
                </mxCell>
                <mxCell id="16" value="+" style="edgeLabel;html=1;align=center;verticalAlign=middle;resizable=0;points=[];" vertex="1" connectable="0" parent="15">
                    <mxGeometry x="-0.1909" y="1" relative="1" as="geometry">
                        <mxPoint as="offset"/>
                    </mxGeometry>
                </mxCell>
                <mxCell id="14" value="last time inventory" style="rounded=0;whiteSpace=wrap;html=1;" vertex="1" parent="1">
                    <mxGeometry x="500" y="110" width="120" height="60" as="geometry"/>
                </mxCell>
                <mxCell id="17" value="inv = last_time + production - sales" style="text;html=1;align=center;verticalAlign=middle;resizable=0;points=[];autosize=1;strokeColor=none;fillColor=none;" vertex="1" parent="1">
                    <mxGeometry x="680" y="225" width="210" height="30" as="geometry"/>
                </mxCell>
                <mxCell id="18" value="inv&amp;lt;=0&lt;br&gt;new_production =&amp;nbsp;&lt;br&gt;sales * safety" style="rounded=0;whiteSpace=wrap;html=1;" vertex="1" parent="1">
                    <mxGeometry x="730" y="270" width="120" height="60" as="geometry"/>
                </mxCell>
                <mxCell id="24" style="edgeStyle=none;html=1;entryX=0;entryY=0.5;entryDx=0;entryDy=0;" edge="1" parent="1" source="21" target="22">
                    <mxGeometry relative="1" as="geometry"/>
                </mxCell>
                <mxCell id="21" value="inv&amp;gt;0&lt;br&gt;new_production =&amp;nbsp;" style="rounded=0;whiteSpace=wrap;html=1;" vertex="1" parent="1">
                    <mxGeometry x="730" y="410" width="120" height="60" as="geometry"/>
                </mxCell>
                <mxCell id="22" value="inv&amp;gt; inv_threshold&lt;br&gt;如果大于一定的数量才做出修改" style="rounded=0;whiteSpace=wrap;html=1;" vertex="1" parent="1">
                    <mxGeometry x="900" y="330" width="120" height="60" as="geometry"/>
                </mxCell>
                <mxCell id="23" value="inv&amp;gt;0 but &amp;lt; inv_threshold&lt;br&gt;不修改" style="rounded=0;whiteSpace=wrap;html=1;" vertex="1" parent="1">
                    <mxGeometry x="900" y="455" width="120" height="60" as="geometry"/>
                </mxCell>
                <mxCell id="25" value="需要满足&lt;br&gt;当前的inv - sales + production &amp;lt; threshold&lt;br&gt;&lt;br&gt;production &amp;lt; threshold + sales - inv&amp;nbsp;&lt;br&gt;如果是 和当前的production区别不大&amp;nbsp; &amp;nbsp;就不进行修改" style="rounded=0;whiteSpace=wrap;html=1;" vertex="1" parent="1">
                    <mxGeometry x="1070" y="330" width="120" height="60" as="geometry"/>
                </mxCell>
            </root>
        </mxGraphModel>
    </diagram>
</mxfile>